<svg xmlns="http://www.w3.org/2000/svg" width="86.511" height="106.109" viewBox="0 0 86.511 106.109">
  <g id="blog" transform="translate(-0.201 -0.19)">
    <path id="Path_199" data-name="Path 199" d="M46.8,12.88h5.378a5.379,5.379,0,0,1,5.379,5.378v8.361" transform="translate(28.152 7.747)" fill="none" stroke="#f56c24" stroke-linecap="round" stroke-linejoin="round" stroke-width="2"/>
    <path id="Path_200" data-name="Path 200" d="M.75,35.886V18.259A5.379,5.379,0,0,1,6.128,12.88H52.245" transform="translate(0.451 7.747)" fill="none" stroke="#f56c24" stroke-linecap="round" stroke-linejoin="round" stroke-width="2"/>
    <line id="Line_77" data-name="Line 77" x2="35.52" transform="translate(11.426 30.32)" fill="none" stroke="#f56c24" stroke-linecap="round" stroke-linejoin="round" stroke-width="2"/>
    <line id="Line_78" data-name="Line 78" x2="35.52" transform="translate(11.426 38.307)" fill="none" stroke="#f56c24" stroke-linecap="round" stroke-linejoin="round" stroke-width="2"/>
    <line id="Line_79" data-name="Line 79" x2="66.755" transform="translate(11.426 56.364)" fill="none" stroke="#f56c24" stroke-linecap="round" stroke-linejoin="round" stroke-width="2"/>
    <line id="Line_80" data-name="Line 80" x2="66.755" transform="translate(11.426 65.143)" fill="none" stroke="#f56c24" stroke-linecap="round" stroke-linejoin="round" stroke-width="2"/>
    <line id="Line_81" data-name="Line 81" x2="66.755" transform="translate(10.858 75.107)" fill="none" stroke="#f56c24" stroke-linecap="round" stroke-linejoin="round" stroke-width="2"/>
    <line id="Line_82" data-name="Line 82" x2="24.762" transform="translate(22.183 46.295)" fill="none" stroke="#f56c24" stroke-linecap="round" stroke-linejoin="round" stroke-width="2"/>
    <line id="Line_83" data-name="Line 83" x2="4.047" transform="translate(11.426 46.295)" fill="none" stroke="#f56c24" stroke-linecap="round" stroke-linejoin="round" stroke-width="2"/>
    <path id="Path_201" data-name="Path 201" d="M35,36.062,54.793,2.737a4.061,4.061,0,1,1,6.983,4.148L41.983,40.209l-7.859,5.279ZM61.148,7.944,54.165,3.8M35,36.062l6.983,4.148" transform="translate(20.526 0.451)" fill="none" stroke="#f56c24" stroke-linecap="round" stroke-linejoin="round" stroke-width="2"/>
    <path id="Path_202" data-name="Path 202" d="M85.261,25.649V66.6a5.379,5.379,0,0,1-5.378,5.379H54.85a3.583,3.583,0,0,0-3.131,1.839L42.765,89.871l-9-16.06a3.587,3.587,0,0,0-3.128-1.832H6.128A5.378,5.378,0,0,1,.75,66.6V35.341" transform="translate(0.451 15.428)" fill="none" stroke="#f56c24" stroke-linecap="round" stroke-linejoin="round" stroke-width="2"/>
  </g>
</svg>
