<svg xmlns="http://www.w3.org/2000/svg" width="63" height="58" viewBox="0 0 63 58">
  <g id="Competitive" transform="translate(-116 -1193)">
    <rect id="Rectangle_28" data-name="Rectangle 28" width="63" height="58" rx="10" transform="translate(116 1193)" fill="#fff"/>
    <g id="Group_47" data-name="Group 47" transform="translate(127.5 1199.484)">
      <path id="Path_156" data-name="Path 156" d="M14.622,52.386H.607V50.667A1.99,1.99,0,0,1,2.6,48.676H12.631a1.99,1.99,0,0,1,1.991,1.991Z" transform="translate(-0.124 -9.916)" fill="none" stroke="#f56c24" stroke-linecap="round" stroke-linejoin="round" stroke-width="1.4"/>
      <path id="Path_157" data-name="Path 157" d="M14.684,35.173A7.092,7.092,0,1,1,7.592,28.08,7.093,7.093,0,0,1,14.684,35.173Z" transform="translate(-0.102 -5.72)" fill="none" stroke="#f56c24" stroke-linecap="round" stroke-linejoin="round" stroke-width="1.4"/>
      <path id="Path_158" data-name="Path 158" d="M13.064,35.73a4.915,4.915,0,1,1-4.916-4.916A4.916,4.916,0,0,1,13.064,35.73Z" transform="translate(-0.659 -6.277)" fill="none" stroke="#f56c24" stroke-linecap="round" stroke-linejoin="round" stroke-width="1.4"/>
      <path id="Path_159" data-name="Path 159" d="M10.379,35.319a1.773,1.773,0,0,0-.6-1.4,1.237,1.237,0,0,0-1.615.21A1.4,1.4,0,0,0,7.891,35.5a1.348,1.348,0,0,0,.782.782c.419.169.851.033,1.229.342a1.385,1.385,0,0,1-.07,2.087,1.363,1.363,0,0,1-1.18.147,1.414,1.414,0,0,1-.885-1.593" transform="translate(-1.581 -6.866)" fill="none" stroke="#f56c24" stroke-linecap="round" stroke-linejoin="round" stroke-width="1.4"/>
      <line id="Line_59" data-name="Line 59" y2="0.788" transform="translate(7.49 26.039)" fill="none" stroke="#f56c24" stroke-linecap="round" stroke-linejoin="round" stroke-width="1.4"/>
      <line id="Line_60" data-name="Line 60" y2="0.788" transform="translate(7.49 32.078)" fill="none" stroke="#f56c24" stroke-linecap="round" stroke-linejoin="round" stroke-width="1.4"/>
      <path id="Path_160" data-name="Path 160" d="M35.066,41.346a7.092,7.092,0,1,1-7.093-7.093A7.093,7.093,0,0,1,35.066,41.346Z" transform="translate(-4.254 -6.978)" fill="none" stroke="#f56c24" stroke-linecap="round" stroke-linejoin="round" stroke-width="1.4"/>
      <path id="Path_161" data-name="Path 161" d="M33.446,41.9a4.915,4.915,0,1,1-4.916-4.916A4.916,4.916,0,0,1,33.446,41.9Z" transform="translate(-4.811 -7.534)" fill="none" stroke="#f56c24" stroke-linecap="round" stroke-linejoin="round" stroke-width="1.4"/>
      <path id="Path_162" data-name="Path 162" d="M30.761,41.492a1.773,1.773,0,0,0-.6-1.4,1.237,1.237,0,0,0-1.615.21,1.4,1.4,0,0,0-.272,1.376,1.348,1.348,0,0,0,.782.782c.419.169.851.033,1.229.342a1.385,1.385,0,0,1-.07,2.087,1.363,1.363,0,0,1-1.18.147,1.414,1.414,0,0,1-.885-1.593" transform="translate(-5.733 -8.123)" fill="none" stroke="#f56c24" stroke-linecap="round" stroke-linejoin="round" stroke-width="1.4"/>
      <line id="Line_61" data-name="Line 61" y2="0.788" transform="translate(23.72 30.954)" fill="none" stroke="#f56c24" stroke-linecap="round" stroke-linejoin="round" stroke-width="1.4"/>
      <line id="Line_62" data-name="Line 62" y2="0.788" transform="translate(23.72 36.993)" fill="none" stroke="#f56c24" stroke-linecap="round" stroke-linejoin="round" stroke-width="1.4"/>
      <path id="Path_163" data-name="Path 163" d="M44.9,36.821,32.615,24.535l3.6-3.6L48.5,33.221a2.545,2.545,0,0,1-3.6,3.6Z" transform="translate(-6.644 -4.265)" fill="none" stroke="#f56c24" stroke-linecap="round" stroke-linejoin="round" stroke-width="1.4"/>
      <path id="Path_164" data-name="Path 164" d="M29.593,23.654l-1.12-1.12,5.565-5.565,1.12,1.12a1.593,1.593,0,0,1,0,2.253l-3.313,3.313A1.592,1.592,0,0,1,29.593,23.654Z" transform="translate(-5.8 -3.457)" fill="none" stroke="#f56c24" stroke-linecap="round" stroke-linejoin="round" stroke-width="1.4"/>
      <rect id="Rectangle_29" data-name="Rectangle 29" width="12.835" height="8.548" transform="translate(14.913 14.748) rotate(-45)" fill="none" stroke="#f56c24" stroke-linecap="round" stroke-linejoin="round" stroke-width="1.4"/>
      <path id="Path_165" data-name="Path 165" d="M35.766,11.865,30.115,6.213A2.486,2.486,0,1,1,33.63,2.7l5.651,5.651a2.486,2.486,0,0,1-3.516,3.516Z" transform="translate(-5.986 -0.401)" fill="none" stroke="#f56c24" stroke-linecap="round" stroke-linejoin="round" stroke-width="1.4"/>
      <path id="Path_166" data-name="Path 166" d="M19.943,27.775l-5.729-5.729a2.431,2.431,0,0,1,3.438-3.438l5.729,5.729a2.431,2.431,0,1,1-3.438,3.438Z" transform="translate(-2.75 -3.646)" fill="none" stroke="#f56c24" stroke-linecap="round" stroke-linejoin="round" stroke-width="1.4"/>
      <line id="Line_63" data-name="Line 63" y1="4.885" x2="4.885" transform="translate(19.022 9.83)" fill="none" stroke="#f56c24" stroke-linecap="round" stroke-linejoin="round" stroke-width="1.4"/>
      <line id="Line_64" data-name="Line 64" x2="1.553" y2="5.727" transform="translate(17.841 0.398)" fill="none" stroke="#f56c24" stroke-linecap="round" stroke-linejoin="round" stroke-width="1.4"/>
      <line id="Line_65" data-name="Line 65" x2="3.332" y2="3.333" transform="translate(13.991 4.734)" fill="none" stroke="#f56c24" stroke-linecap="round" stroke-linejoin="round" stroke-width="1.4"/>
      <line id="Line_66" data-name="Line 66" x2="5.565" y2="1.521" transform="translate(9.688 8.616)" fill="none" stroke="#f56c24" stroke-linecap="round" stroke-linejoin="round" stroke-width="1.4"/>
    </g>
  </g>
</svg>
