<svg xmlns="http://www.w3.org/2000/svg" width="56.4" height="54.639" viewBox="0 0 56.4 54.639">
  <g id="Competitive" transform="translate(0.2 0.2)">
    <path id="Path_137" data-name="Path 137" d="M2.878,31.466A17.863,17.863,0,0,1,18.53,15.814" fill="none" stroke="#f56c24" stroke-linecap="round" stroke-linejoin="round" stroke-width="1.4"/>
    <path id="Path_138" data-name="Path 138" d="M2.878,35.712A17.863,17.863,0,0,0,18.53,51.364" fill="none" stroke="#f56c24" stroke-linecap="round" stroke-linejoin="round" stroke-width="1.4"/>
    <path id="Path_139" data-name="Path 139" d="M22.777,51.364A17.874,17.874,0,0,0,38.429,35.712" fill="none" stroke="#f56c24" stroke-linecap="round" stroke-linejoin="round" stroke-width="1.4"/>
    <path id="Path_140" data-name="Path 140" d="M35.16,23.085a17.775,17.775,0,0,1,3.269,8.381" fill="none" stroke="#f56c24" stroke-linecap="round" stroke-linejoin="round" stroke-width="1.4"/>
    <path id="Path_141" data-name="Path 141" d="M22.777,15.813a17.811,17.811,0,0,1,10.118,4.7" fill="none" stroke="#f56c24" stroke-linecap="round" stroke-linejoin="round" stroke-width="1.4"/>
    <line id="Line_49" data-name="Line 49" y2="4.478" transform="translate(20.651 13.437)" fill="none" stroke="#f56c24" stroke-linecap="round" stroke-linejoin="round" stroke-width="1.4"/>
    <line id="Line_50" data-name="Line 50" y2="4.478" transform="translate(20.651 49.262)" fill="none" stroke="#f56c24" stroke-linecap="round" stroke-linejoin="round" stroke-width="1.4"/>
    <line id="Line_51" data-name="Line 51" x2="4.478" transform="translate(36.324 33.588)" fill="none" stroke="#f56c24" stroke-linecap="round" stroke-linejoin="round" stroke-width="1.4"/>
    <line id="Line_52" data-name="Line 52" x2="4.478" transform="translate(0.5 33.588)" fill="none" stroke="#f56c24" stroke-linecap="round" stroke-linejoin="round" stroke-width="1.4"/>
    <path id="Path_142" data-name="Path 142" d="M39.645,8.427v7.927h7.927L55.5,8.427H47.572V.5Z" fill="none" stroke="#f56c24" stroke-linecap="round" stroke-linejoin="round" stroke-width="1.4"/>
    <line id="Line_53" data-name="Line 53" x1="7.927" y2="7.927" transform="translate(31.718 16.355)" fill="none" stroke="#f56c24" stroke-linecap="round" stroke-linejoin="round" stroke-width="1.4"/>
    <circle id="Ellipse_3" data-name="Ellipse 3" cx="9.911" cy="9.911" r="9.911" transform="translate(10.74 23.677)" fill="none" stroke="#f56c24" stroke-linecap="round" stroke-linejoin="round" stroke-width="1.4"/>
    <path id="Path_143" data-name="Path 143" d="M23.136,31.689a3.371,3.371,0,0,0-1.142-2.662,2.353,2.353,0,0,0-3.07.4,2.658,2.658,0,0,0-.516,2.615,2.565,2.565,0,0,0,1.486,1.486c.8.32,1.618.063,2.337.649a2.632,2.632,0,0,1-.133,3.966,2.593,2.593,0,0,1-2.243.28c-1.369-.45-1.754-1.7-1.681-3.029" fill="none" stroke="#f56c24" stroke-linecap="round" stroke-linejoin="round" stroke-width="1.4"/>
    <line id="Line_54" data-name="Line 54" y2="1.498" transform="translate(20.65 27.101)" fill="none" stroke="#f56c24" stroke-linecap="round" stroke-linejoin="round" stroke-width="1.4"/>
    <line id="Line_55" data-name="Line 55" y2="1.498" transform="translate(20.65 38.578)" fill="none" stroke="#f56c24" stroke-linecap="round" stroke-linejoin="round" stroke-width="1.4"/>
  </g>
</svg>
