<svg xmlns="http://www.w3.org/2000/svg" width="73" height="68" viewBox="0 0 73 68">
  <g id="hire" transform="translate(-179 -778.5)">
    <rect id="box" width="73" height="68" rx="10" transform="translate(179 778.5)" fill="#ebeeff"/>
    <g id="hire-2" data-name="hire" transform="translate(192.5 789)">
      <path id="Path_114" data-name="Path 114" d="M20.683,10.92a.549.549,0,0,1-.258-.064L17.649,9.4l-2.773,1.459a.555.555,0,0,1-.8-.584l.53-3.09L12.356,4.992a.555.555,0,0,1,.308-.947l3.1-.45L17.153.783a.577.577,0,0,1,.994,0L19.534,3.6l3.1.45a.555.555,0,0,1,.308.947L20.7,7.181l.53,3.09a.555.555,0,0,1-.454.641.566.566,0,0,1-.093.008Z" transform="translate(-1.835)" fill="none" stroke="#19458c" stroke-linecap="round" stroke-linejoin="round" stroke-width="1.4"/>
      <path id="Path_115" data-name="Path 115" d="M10.354,49.556V49.03c0-3.756.007-7.513-.01-11.27a.724.724,0,0,1,.448-.754,13.616,13.616,0,0,1,13.442.2,2.029,2.029,0,0,0,.913.245c1.862.023,3.725,0,5.588.014A1.853,1.853,0,0,1,32.6,39.885a1.88,1.88,0,0,1-1.9,1.281q-5.1,0-10.2,0c-.14,0-.314-.048-.411.018-.17.115-.4.3-.4.457s.224.346.39.464c.1.067.271.023.411.023,3.353,0,6.706-.008,10.059.007a3.78,3.78,0,0,0,2.026-.563q4.488-2.695,8.993-5.357a2.682,2.682,0,1,1,2.79,4.574c-1.9,1.136-3.823,2.248-5.735,3.371-3.411,2-6.854,3.948-10.22,6.022a10.222,10.222,0,0,1-7.841,1.329c-3.261-.691-6.549-1.247-9.825-1.863C10.615,49.627,10.5,49.592,10.354,49.556Z" transform="translate(-1.546 -5.469)" fill="none" stroke="#19458c" stroke-linecap="round" stroke-linejoin="round" stroke-width="1.4"/>
      <rect id="Rectangle_23" data-name="Rectangle 23" width="8.298" height="17.629" rx="1.204" transform="translate(0.5 29.235)" fill="none" stroke="#19458c" stroke-linecap="round" stroke-linejoin="round" stroke-width="1.4"/>
      <path id="Path_116" data-name="Path 116" d="M37.005,11.928A5.009,5.009,0,1,1,32,6.92,5.008,5.008,0,0,1,37.005,11.928Z" transform="translate(-4.159 -1.008)" fill="none" stroke="#19458c" stroke-linecap="round" stroke-linejoin="round" stroke-width="1.4"/>
      <path id="Path_117" data-name="Path 117" d="M36.015,21.264H34.941a5,5,0,0,1-7.551,0H26.315a4.622,4.622,0,0,0-4.622,4.621v4.658H40.637V25.885A4.621,4.621,0,0,0,36.015,21.264Z" transform="translate(-3.328 -3.26)" fill="none" stroke="#19458c" stroke-linecap="round" stroke-linejoin="round" stroke-width="1.4"/>
      <path id="Path_118" data-name="Path 118" d="M43.145,10.92a.549.549,0,0,0,.258-.064L46.179,9.4l2.773,1.459a.555.555,0,0,0,.8-.584l-.53-3.09,2.246-2.189a.555.555,0,0,0-.308-.947l-3.1-.45L46.675.783a.577.577,0,0,0-.994,0L44.294,3.6l-3.1.45a.555.555,0,0,0-.308.947l2.246,2.189-.53,3.09a.555.555,0,0,0,.454.641.566.566,0,0,0,.093.008Z" transform="translate(-6.314)" fill="none" stroke="#19458c" stroke-linecap="round" stroke-linejoin="round" stroke-width="1.4"/>
    </g>
  </g>
</svg>
