<svg xmlns="http://www.w3.org/2000/svg" xmlns:xlink="http://www.w3.org/1999/xlink" width="260" height="228.093" viewBox="0 0 260 228.093">
  <defs>
    <clipPath id="clip-path">
      <rect id="Rectangle_47" data-name="Rectangle 47" width="260" height="228.093" fill="none"/>
    </clipPath>
  </defs>
  <g id="joingraphic" transform="translate(0 0)">
    <rect id="Rectangle_42" data-name="Rectangle 42" width="63.202" height="63.202" transform="translate(85.309 78.484) rotate(-45)" fill="#f26b21"/>
    <rect id="Rectangle_43" data-name="Rectangle 43" width="63.201" height="63.201" transform="translate(85.31 183.402) rotate(-44.999)" fill="#f26b21"/>
    <rect id="Rectangle_44" data-name="Rectangle 44" width="63.202" height="63.202" transform="translate(137.769 130.943) rotate(-45)" fill="#19468d"/>
    <rect id="Rectangle_45" data-name="Rectangle 45" width="63.202" height="63.202" transform="translate(32.85 130.943) rotate(-45)" fill="#19468d"/>
    <path id="Path_190" data-name="Path 190" d="M130,0,0,130H25.414L130,25.412,234.587,130H260Z" transform="translate(0)" fill="#4c4c4c"/>
    <g id="Group_58" data-name="Group 58" transform="translate(0 0)">
      <g id="Group_57" data-name="Group 57" clip-path="url(#clip-path)">
        <path id="Path_191" data-name="Path 191" d="M218.305,122.472s-12.019,2.577-12.867,12.813a8.6,8.6,0,0,0,2.262,5.145l-8.7,8.7s-5.573-4.445-8.469-.785a2.528,2.528,0,0,0-.51,1.57v4.942l-4.807,4.666-9.05-9.474,4.278-4.277L184,145.6a3.754,3.754,0,0,0,3.532-2.819,3.583,3.583,0,0,0,.088-.792s5.09-23.331,30.683-19.513" transform="translate(-23.489 -16.273)" fill="#fff"/>
        <rect id="Rectangle_46" data-name="Rectangle 46" width="12.298" height="29.315" transform="translate(179.649 136.986) rotate(-45)" fill="#fff"/>
        <path id="Path_192" data-name="Path 192" d="M111.207,155.547a19.328,19.328,0,0,0,2.818-15.274,1.55,1.55,0,0,0-2.6-.689l-8.58,8.58Z" transform="translate(-13.713 -18.55)" fill="#fff"/>
        <path id="Path_193" data-name="Path 193" d="M92.836,147.016l-8.252-8.267a2,2,0,0,1,0-2.818l9.832-9.833a1.56,1.56,0,0,0-.639-2.58c-10.852-3.714-27.713,6.289-22.771,24.442a1.983,1.983,0,0,1-.573,2.028c-.161.146-13.987,13.8-13.759,13.591L67.9,174.808l13.522-13.829a2.024,2.024,0,0,1,2.028-.573c8.35,2.252,15.026-.014,19.361-4.34Zm-18.606-.183-1.183-1.294a.4.4,0,0,1,.025-.561l5.405-4.941a.4.4,0,0,1,.56.025l1.183,1.294a.4.4,0,0,1-.025.56l-5.4,4.942a.4.4,0,0,1-.561-.025m2.955,2.955L76,148.494a.4.4,0,0,1,.024-.56l5.405-4.942a.4.4,0,0,1,.561.025l1.183,1.294a.4.4,0,0,1-.025.561l-5.405,4.941a.4.4,0,0,1-.561-.025m8.921-1.96-5.4,4.942a.4.4,0,0,1-.561-.025l-1.183-1.294a.4.4,0,0,1,.025-.561l5.4-4.942a.4.4,0,0,1,.561.025l1.183,1.294a.4.4,0,0,1-.025.561" transform="translate(-7.556 -16.367)" fill="#fff"/>
        <path id="Path_194" data-name="Path 194" d="M164.353,79.849H129.882a2.6,2.6,0,0,1-2.6-2.6v-6.7a2.6,2.6,0,0,1,2.6-2.6h34.471a2.6,2.6,0,0,1,2.6,2.6v6.7a2.6,2.6,0,0,1-2.6,2.6" transform="translate(-16.971 -9.06)" fill="#fff"/>
        <path id="Path_195" data-name="Path 195" d="M148.566,92.488h-2.777V87.444a2.244,2.244,0,0,0-2.241-2.241H125.532a3.124,3.124,0,0,1-3.121-3.12v-5.75a3.124,3.124,0,0,1,3.121-3.121h1.343v2.777h-1.343a.344.344,0,0,0-.344.344v5.75a.344.344,0,0,0,.344.343h18.016a5.024,5.024,0,0,1,5.018,5.018Z" transform="translate(-16.321 -9.762)" fill="#fff"/>
        <path id="Path_196" data-name="Path 196" d="M152.077,120.434h-3.491a2.166,2.166,0,0,1-2.167-2.167V97.62a2.167,2.167,0,0,1,2.167-2.167h3.491a2.167,2.167,0,0,1,2.167,2.167v20.647a2.166,2.166,0,0,1-2.167,2.167" transform="translate(-19.523 -12.727)" fill="#fff"/>
        <path id="Path_197" data-name="Path 197" d="M158,175.478l-6.3,5.695a.808.808,0,0,0-.537-.042l-13.179,3.49a3.5,3.5,0,0,0-4.957-.226l-22.161,20.2a3.5,3.5,0,0,0-.225,4.958l9.9,10.866a3.5,3.5,0,0,0,4.957.225l1.277-1.159.012-.012L137.438,238.6a3.362,3.362,0,0,0,5.314.749l11.1-11.1a.848.848,0,0,0,.023-1.165l-4.868-5.356a.838.838,0,0,0-1.189-.048l-3.358,3.085a.839.839,0,0,1-1.154-.024l-1.141-1.106a.848.848,0,0,1,.036-1.236l3.566-3.1a.832.832,0,0,0,.1-1.159l-4.06-5.011a.836.836,0,0,0-1.206-.1l-1.474,1.3a.845.845,0,0,1-1.284-.2l-1.808-3.079,11.616-10.592a3.5,3.5,0,0,0,.225-4.957l4.287-13.286a.828.828,0,0,0,.03-.35l6.057-5.538.3-.276Zm-13.612,25.209-.042.04-4.084,3.657a1.05,1.05,0,0,1-1.484-.081,1.062,1.062,0,0,1,.081-1.484l4.084-3.658a1.051,1.051,0,0,1,1.446,1.525m-2.721-2.721-.042.04-4.084,3.658a1.05,1.05,0,0,1-1.484-.081,1.061,1.061,0,0,1,.081-1.484l4.084-3.657a1.051,1.051,0,0,1,1.445,1.524m-2.72-2.72-.042.04-4.084,3.658a1.051,1.051,0,0,1-1.484-.081,1.068,1.068,0,0,1,.081-1.484l4.084-3.658a1.051,1.051,0,0,1,1.445,1.525m-2.721-2.721-.042.041-4.085,3.657a1.05,1.05,0,0,1-1.484-.081,1.068,1.068,0,0,1,.081-1.484L134.778,191a1.051,1.051,0,0,1,1.445,1.524m-2.72-2.72-.042.04-4.084,3.658a1.051,1.051,0,0,1-1.484-.081,1.065,1.065,0,0,1,.081-1.484l4.084-3.658A1.051,1.051,0,0,1,133.5,189.8" transform="translate(-14.629 -23.397)" fill="#fff"/>
      </g>
    </g>
  </g>
</svg>
