<svg id="link" xmlns="http://www.w3.org/2000/svg" width="24" height="24" viewBox="0 0 24 24">
  <path id="Path_198" data-name="Path 198" d="M20,0H4A4,4,0,0,0,0,4V20a4,4,0,0,0,4,4H20a4,4,0,0,0,4-4V4a4,4,0,0,0-4-4M8,19.5H5.5V9.5H8Zm.015-12A1.693,1.693,0,0,1,6.75,8a1.668,1.668,0,0,1-1.26-.511A1.744,1.744,0,0,1,5,6.234a1.679,1.679,0,0,1,.49-1.249A1.714,1.714,0,0,1,6.75,4.5a1.713,1.713,0,0,1,1.264.484A1.69,1.69,0,0,1,8.5,6.234,1.739,1.739,0,0,1,8.014,7.5M19.5,19.5H17V13.943c0-1.549-.893-2.443-2-2.443a2.106,2.106,0,0,0-1.483.734A2.342,2.342,0,0,0,13,13.8v5.7H10.5V9.5H13v1.582h.039a3.544,3.544,0,0,1,3.213-1.826c2-.006,3.248,1.494,3.248,4.121Z" fill="#afafaf"/>
</svg>
