<svg xmlns="http://www.w3.org/2000/svg" xmlns:xlink="http://www.w3.org/1999/xlink" width="233.27" height="34.807" viewBox="0 0 233.27 34.807">
  <defs>
    <clipPath id="clip-path">
      <rect id="Rectangle_2" data-name="Rectangle 2" width="233.27" height="34.806" fill="none"/>
    </clipPath>
  </defs>
  <g id="logo" transform="translate(0 0)">
    <path id="Path_1" data-name="Path 1" d="M23.691,0,12.816,2.188,6.906,3.376,0,4.765V11.1l6.907-.641V31.044l5.91,1.325V9.911L23.663,8.9l.028,0Z" transform="translate(0 0)" fill="#00377c"/>
    <path id="Path_2" data-name="Path 2" d="M76.9,28.927l.028,0v-.005Z" transform="translate(-53.235 -20.024)" fill="#ff5000"/>
    <path id="Path_3" data-name="Path 3" d="M76.99,0V8.906l6.527.571V1.333Z" transform="translate(-53.298 0)" fill="#f88742"/>
    <path id="Path_4" data-name="Path 4" d="M117.745,43.093v-5.82l-4.473-.355-9.506-.755v21.8l9.506-2.162,4.473-1.017V47.965l-3.335.407v2.7l-1.138.187-4.9.807V40.031l4.9.065,1.138.014V43.17Z" transform="translate(-71.835 -25.035)" fill="#ef5214"/>
    <path id="Path_5" data-name="Path 5" d="M47.722,34.711V56.35l9.006,2.019V34.037Z" transform="translate(-33.037 -23.563)" fill="#2f4f9d"/>
    <path id="Path_6" data-name="Path 6" d="M0,40.561V57.324l5.663,1.27v-18.4Z" transform="translate(0 -27.826)" fill="#2f4f9d"/>
    <path id="Path_7" data-name="Path 7" d="M76.99,58.369l6.464-1.492V34.566l-6.464-.53Z" transform="translate(-53.298 -23.563)" fill="#f88742"/>
    <path id="Path_8" data-name="Path 8" d="M113.233,7.4l-9.523-1.945V13.4l9.523.833,4.473.391V8.316Z" transform="translate(-71.797 -3.779)" fill="#f88742"/>
    <path id="Path_9" data-name="Path 9" d="M188,38.324h-3.471V36.75h-1.292v9.081h1.413v3.31h-8.476v-3.31h1.413V36.75H176.3v1.574h-3.471V33.44H188Z" transform="translate(-119.645 -23.15)" fill="#00377c"/>
    <g id="Group_2" data-name="Group 2" transform="translate(0 0)">
      <g id="Group_1" data-name="Group 1" clip-path="url(#clip-path)">
        <path id="Path_10" data-name="Path 10" d="M233.717,47.162a2.663,2.663,0,0,1,.606.2v3.855a4.588,4.588,0,0,0-1.776-.343,2.7,2.7,0,0,0-1.958.666,2.636,2.636,0,0,0-.686,1.978v1.756h1.817v3.31h-7.346v-3.31h.888v-4.6h-.888v-3.31H229.9v1.473a4.334,4.334,0,0,1,1.292-1.3,3.245,3.245,0,0,1,1.755-.454,3.545,3.545,0,0,1,.767.081" transform="translate(-155.329 -32.593)" fill="#00377c"/>
        <path id="Path_11" data-name="Path 11" d="M270.568,55.273v3.31h-5.328V57.21A4.2,4.2,0,0,1,264,58.361a3.574,3.574,0,0,1-1.948.5,3.36,3.36,0,0,1-2.381-.807,2.96,2.96,0,0,1-.868-2.281q0-3.814,6.478-3.915a1.09,1.09,0,0,0-.525-.939,3.541,3.541,0,0,0-1.574-.252,10.8,10.8,0,0,0-1.948.192,11.417,11.417,0,0,0-1.907.515V47.665a21.117,21.117,0,0,1,2.321-.424,19.113,19.113,0,0,1,2.442-.162,6.684,6.684,0,0,1,4.3,1.09,4.166,4.166,0,0,1,1.291,3.37v3.734Zm-5.328-1.413a3.261,3.261,0,0,0-1.4.242.833.833,0,0,0-.495.807.751.751,0,0,0,.212.555.8.8,0,0,0,.6.212.9.9,0,0,0,.807-.444,2.329,2.329,0,0,0,.283-1.251Z" transform="translate(-179.164 -32.592)" fill="#00377c"/>
        <path id="Path_12" data-name="Path 12" d="M299.648,47.889a7.728,7.728,0,0,1-1.039-4.359,7.73,7.73,0,0,1,1.039-4.359,3.5,3.5,0,0,1,3.1-1.533,3.344,3.344,0,0,1,1.826.5,5.074,5.074,0,0,1,1.3,1.15V36.749h-1.191v-3.31h5.832V45.83h.888v3.309h-5.529V47.767a5.063,5.063,0,0,1-1.3,1.151,3.344,3.344,0,0,1-1.826.5,3.494,3.494,0,0,1-3.1-1.533m5.933-2.372a1.4,1.4,0,0,0,.293-.979V42.52a1.4,1.4,0,0,0-.293-.979,1.387,1.387,0,0,0-1.755,0,1.394,1.394,0,0,0-.293.979v2.018a1.4,1.4,0,0,0,.293.979,1.386,1.386,0,0,0,1.755,0" transform="translate(-206.721 -23.149)" fill="#00377c"/>
        <path id="Path_13" data-name="Path 13" d="M343.637,57.363a5.7,5.7,0,0,1-1.615-4.389,5.706,5.706,0,0,1,1.615-4.389,6.32,6.32,0,0,1,4.48-1.5,5.116,5.116,0,0,1,4.107,1.483,5.492,5.492,0,0,1,1.261,3.683V53.7h-6.539v.121a1.32,1.32,0,0,0,.444,1.1,2.391,2.391,0,0,0,1.473.353,14.511,14.511,0,0,0,2.341-.182,12.083,12.083,0,0,0,1.938-.464v3.229a8.5,8.5,0,0,1-2.069.7,13.215,13.215,0,0,1-2.957.313,6.318,6.318,0,0,1-4.48-1.5m5.65-5.882v-.242a1.392,1.392,0,0,0-.293-.989,1.168,1.168,0,0,0-.878-.3,1.146,1.146,0,0,0-.878.313,1.4,1.4,0,0,0-.293.979v.242Z" transform="translate(-236.774 -32.593)" fill="#00377c"/>
        <path id="Path_14" data-name="Path 14" d="M384.355,46.85q-2.068-1.937-2.068-6.2,0-8.132,7.911-8.133a13.069,13.069,0,0,1,3.562.464,8.384,8.384,0,0,1,2.452,1.029V39.06h-4.843V37.607a1.6,1.6,0,0,0-.343-1.13,1.639,1.639,0,0,0-2.059,0,1.6,1.6,0,0,0-.343,1.13V43.7a1.6,1.6,0,0,0,.343,1.13,1.639,1.639,0,0,0,2.059,0,1.6,1.6,0,0,0,.343-1.13V42.068h4.843v5.227a8.709,8.709,0,0,1-2.452,1.029,12.783,12.783,0,0,1-3.522.464,8.283,8.283,0,0,1-5.883-1.937" transform="translate(-264.649 -22.514)" fill="#00377c"/>
        <path id="Path_15" data-name="Path 15" d="M439.372,47.162a2.662,2.662,0,0,1,.606.2v3.855a4.588,4.588,0,0,0-1.776-.343,2.7,2.7,0,0,0-1.957.666,2.636,2.636,0,0,0-.686,1.978v1.756h1.816v3.31h-7.346v-3.31h.888v-4.6h-.888v-3.31h5.529v1.473a4.333,4.333,0,0,1,1.292-1.3,3.247,3.247,0,0,1,1.756-.454,3.545,3.545,0,0,1,.767.081" transform="translate(-297.7 -32.593)" fill="#00377c"/>
        <path id="Path_16" data-name="Path 16" d="M465.81,57.363a5.7,5.7,0,0,1-1.614-4.389,5.707,5.707,0,0,1,1.614-4.389,6.321,6.321,0,0,1,4.48-1.5,5.115,5.115,0,0,1,4.106,1.483,5.49,5.49,0,0,1,1.261,3.683V53.7H469.12v.121a1.319,1.319,0,0,0,.444,1.1,2.39,2.39,0,0,0,1.473.353,14.512,14.512,0,0,0,2.341-.182,12.064,12.064,0,0,0,1.937-.464v3.229a8.5,8.5,0,0,1-2.068.7,13.215,13.215,0,0,1-2.956.313,6.319,6.319,0,0,1-4.48-1.5m5.65-5.882v-.242a1.391,1.391,0,0,0-.292-.989,1.168,1.168,0,0,0-.878-.3,1.147,1.147,0,0,0-.878.313,1.4,1.4,0,0,0-.292.979v.242Z" transform="translate(-321.353 -32.593)" fill="#00377c"/>
        <path id="Path_17" data-name="Path 17" d="M506.4,59.219l-2.664-7.911h-.847V48h6.236v3.309h-.847L509,54.457h.2L510.677,48h3.713l1.473,6.458h.2l.706-3.148h-.847V48h5.852v3.309h-.847l-2.563,7.911h-4.9l-1.11-5.61h-.2l-1.11,5.61Z" transform="translate(-348.138 -33.229)" fill="#00377c"/>
        <path id="Path_18" data-name="Path 18" d="M566.106,58.059V55.072h3.269v.2q0,.968,1.231.969,1.09,0,1.09-.747a.673.673,0,0,0-.313-.605,3.252,3.252,0,0,0-1.1-.343l-1.009-.182q-3.168-.565-3.168-3.592a3.173,3.173,0,0,1,1.332-2.724,5.985,5.985,0,0,1,3.592-.969,9.65,9.65,0,0,1,4.258.847v2.8H572.22v-.2a.733.733,0,0,0-.272-.615,1.28,1.28,0,0,0-.8-.212q-1.009,0-1.009.646a.586.586,0,0,0,.282.525,3.436,3.436,0,0,0,1.029.343l1.15.222a4.242,4.242,0,0,1,2.563,1.272,3.616,3.616,0,0,1,.767,2.381,3.3,3.3,0,0,1-1.282,2.805,5.944,5.944,0,0,1-3.642.968,15.061,15.061,0,0,1-4.9-.807" transform="translate(-391.903 -32.593)" fill="#00377c"/>
        <rect id="Rectangle_1" data-name="Rectangle 1" width="3.148" height="3.31" transform="translate(185.12 22.681)" fill="#ef5214"/>
        <path id="Path_19" data-name="Path 19" d="M614.87,57.362a5.705,5.705,0,0,1-1.614-4.389,5.706,5.706,0,0,1,1.614-4.389,6.321,6.321,0,0,1,4.48-1.5,9.185,9.185,0,0,1,2.664.383,7.277,7.277,0,0,1,1.978.868v4h-3.471v-.363a1.429,1.429,0,0,0-.283-.979,1.14,1.14,0,0,0-.887-.313q-1.171,0-1.171,1.292V53.7q0,1.574,1.8,1.574a24.5,24.5,0,0,0,3.895-.363v3.168a9.462,9.462,0,0,1-1.927.545,13.4,13.4,0,0,1-2.573.242,6.349,6.349,0,0,1-4.5-1.5" transform="translate(-424.544 -32.592)" fill="#00377c"/>
        <path id="Path_20" data-name="Path 20" d="M651.726,57.363a5.7,5.7,0,0,1-1.615-4.389,5.707,5.707,0,0,1,1.615-4.389,6.321,6.321,0,0,1,4.48-1.5,6.255,6.255,0,0,1,4.5,1.523,5.761,5.761,0,0,1,1.594,4.369,5.706,5.706,0,0,1-1.614,4.389,7.428,7.428,0,0,1-8.96,0m5.358-2.4a1.4,1.4,0,0,0,.292-.979V51.965a1.4,1.4,0,0,0-.292-.979,1.388,1.388,0,0,0-1.756,0,1.4,1.4,0,0,0-.292.979v2.018a1.4,1.4,0,0,0,.292.979,1.387,1.387,0,0,0,1.756,0" transform="translate(-450.058 -32.593)" fill="#00377c"/>
        <path id="Path_21" data-name="Path 21" d="M712.2,55.274v3.31h-6.377v-3.31h.848v-3.31a1.431,1.431,0,0,0-.282-.979,1.087,1.087,0,0,0-.848-.313q-1.211,0-1.211,1.292v3.31h.848v3.31h-6.337v-3.31h.848v-3.31a1.432,1.432,0,0,0-.282-.979,1.087,1.087,0,0,0-.848-.313q-1.211,0-1.211,1.292v3.31h.848v3.31h-6.377v-3.31h.888v-4.6h-.888v-3.31h5.529v1.574a4.441,4.441,0,0,1,3.633-1.856,3.29,3.29,0,0,1,2.008.575,3.076,3.076,0,0,1,1.1,1.624,5.494,5.494,0,0,1,1.665-1.614,4.2,4.2,0,0,1,2.21-.565,3.022,3.022,0,0,1,2.512,1.049,4.508,4.508,0,0,1,.837,2.886v4.238Z" transform="translate(-478.932 -32.593)" fill="#00377c"/>
      </g>
    </g>
  </g>
</svg>
