<svg xmlns="http://www.w3.org/2000/svg" width="63" height="58" viewBox="0 0 63 58">
  <g id="Payments" transform="translate(-116 -1193)">
    <rect id="Rectangle_28" data-name="Rectangle 28" width="63" height="58" rx="10" transform="translate(116 1193)" fill="#fff"/>
    <g id="Group_53" data-name="Group 53" transform="translate(124.598 1204.598)">
      <path id="Path_178" data-name="Path 178" d="M29.252,29.894H2.588A2.089,2.089,0,0,1,.5,27.805V7.914A2.089,2.089,0,0,1,2.588,5.826H36.374a2.088,2.088,0,0,1,2.088,2.088V21.864" transform="translate(-0.098 -1.144)" fill="none" stroke="#f56c24" stroke-linecap="round" stroke-linejoin="round" stroke-width="1.4"/>
      <path id="Path_179" data-name="Path 179" d="M5.71,4.78V2.588A2.088,2.088,0,0,1,7.8.5H41.585a2.088,2.088,0,0,1,2.088,2.088V22.479" transform="translate(-1.122 -0.098)" fill="none" stroke="#f56c24" stroke-linecap="round" stroke-linejoin="round" stroke-width="1.4"/>
      <path id="Path_180" data-name="Path 180" d="M43.99,43.909c-7.807-2.752-7.71-8.933-7.71-8.933V28.3a11.593,11.593,0,0,0,5.446-2.313h4.553A11.593,11.593,0,0,0,51.725,28.3v6.673s.1,6.18-7.71,8.933Z" transform="translate(-7.126 -5.105)" fill="none" stroke="#f56c24" stroke-linecap="round" stroke-linejoin="round" stroke-width="1.4"/>
      <path id="Path_181" data-name="Path 181" d="M48.67,34.093,44.4,38.5,41.412,35.55" transform="translate(-8.134 -6.697)" fill="none" stroke="#f56c24" stroke-linecap="round" stroke-linejoin="round" stroke-width="1.4"/>
      <line id="Line_71" data-name="Line 71" x2="37.962" transform="translate(0.402 11.009)" fill="none" stroke="#f56c24" stroke-linecap="round" stroke-linejoin="round" stroke-width="1.4"/>
      <line id="Line_72" data-name="Line 72" x2="13.212" transform="translate(5.38 19.119)" fill="none" stroke="#f56c24" stroke-linecap="round" stroke-linejoin="round" stroke-width="1.4"/>
      <line id="Line_73" data-name="Line 73" x2="7.35" transform="translate(5.38 23.663)" fill="none" stroke="#f56c24" stroke-linecap="round" stroke-linejoin="round" stroke-width="1.4"/>
      <path id="Path_182" data-name="Path 182" d="M35.466,28.858a3.7,3.7,0,0,1-2.579-3.73,3.988,3.988,0,1,1,7.975,0" transform="translate(-6.46 -4.152)" fill="none" stroke="#f56c24" stroke-linecap="round" stroke-linejoin="round" stroke-width="1.4"/>
    </g>
  </g>
</svg>
