<svg xmlns="http://www.w3.org/2000/svg" width="73" height="68" viewBox="0 0 73 68">
  <g id="profile" transform="translate(-179 -778.5)">
    <rect id="box" width="73" height="68" rx="10" transform="translate(179 778.5)" fill="#ebeeff"/>
    <g id="profl" transform="translate(195.5 788)">
      <path id="Path_119" data-name="Path 119" d="M15.3,11.459S12.164,11.181,12.6,14c0,0,.239,1.554,2.7,1.554" transform="translate(-1.581 -1.436)" fill="none" stroke="#19458c" stroke-linecap="round" stroke-linejoin="round" stroke-width="1.4"/>
      <path id="Path_120" data-name="Path 120" d="M18.281,20.968v2.745l3.038,3.557" transform="translate(-2.331 -2.683)" fill="none" stroke="#19458c" stroke-linecap="round" stroke-linejoin="round" stroke-width="1.4"/>
      <path id="Path_121" data-name="Path 121" d="M16.956,24.128,9.84,26.194a2.66,2.66,0,0,0-1.669,1.49" transform="translate(-1.006 -3.098)" fill="none" stroke="#19458c" stroke-linecap="round" stroke-linejoin="round" stroke-width="1.4"/>
      <path id="Path_122" data-name="Path 122" d="M28,10.226a8.924,8.924,0,0,0,.15-1.634c0-4.469-3.3-8.092-7.361-8.092s-7.361,3.623-7.361,8.092a8.924,8.924,0,0,0,.149,1.634" transform="translate(-1.695 0)" fill="none" stroke="#19458c" stroke-linecap="round" stroke-linejoin="round" stroke-width="1.4"/>
      <path id="Path_123" data-name="Path 123" d="M26.466,10.018v5.325a5.248,5.248,0,0,1-5.374,4.768,5.249,5.249,0,0,1-5.375-4.768V10.018s5.122.318,8.521-2.583A9.845,9.845,0,0,0,26.466,10.018Z" transform="translate(-1.995 -0.909)" fill="none" stroke="#19458c" stroke-linecap="round" stroke-linejoin="round" stroke-width="1.4"/>
      <path id="Path_124" data-name="Path 124" d="M28.088,11.459s3.139-.278,2.7,2.543c0,0-.239,1.554-2.7,1.554" transform="translate(-3.617 -1.436)" fill="none" stroke="#19458c" stroke-linecap="round" stroke-linejoin="round" stroke-width="1.4"/>
      <path id="Path_125" data-name="Path 125" d="M25.066,20.968v2.745L22.028,27.27" transform="translate(-2.822 -2.683)" fill="none" stroke="#19458c" stroke-linecap="round" stroke-linejoin="round" stroke-width="1.4"/>
      <path id="Path_126" data-name="Path 126" d="M25.524,24.128l7.115,2.066a2.66,2.66,0,0,1,1.669,1.49" transform="translate(-3.281 -3.098)" fill="none" stroke="#19458c" stroke-linecap="round" stroke-linejoin="round" stroke-width="1.4"/>
      <path id="Path_127" data-name="Path 127" d="M19.484,47.641h15.3L36.126,29.9a1.069,1.069,0,0,0-1.066-1.15H3.69A1.069,1.069,0,0,0,2.624,29.9L3.967,47.641H19.484Z" transform="translate(-0.278 -3.703)" fill="none" stroke="#19458c" stroke-linecap="round" stroke-linejoin="round" stroke-width="1.4"/>
      <rect id="Rectangle_24" data-name="Rectangle 24" width="37.194" height="4.351" transform="translate(0.5 43.938)" fill="none" stroke="#19458c" stroke-linecap="round" stroke-linejoin="round" stroke-width="1.4"/>
      <path id="Path_128" data-name="Path 128" d="M23.368,39.468a3.268,3.268,0,0,1,2.079-.07,11.207,11.207,0,0,1,1.777.977,3.145,3.145,0,0,0,1.793.328,3.4,3.4,0,0,0,3.215-3.094l-2.738.543a1.878,1.878,0,0,1-.461-2.324l2.738-.543a3.394,3.394,0,0,0-4.152-1.634,3.15,3.15,0,0,0-1.533.987,11.165,11.165,0,0,1-1.269,1.581,3.564,3.564,0,0,1-1.949.728l-6.1,1.21a3.563,3.563,0,0,1-2.079.07,11.107,11.107,0,0,1-1.777-.977,3.144,3.144,0,0,0-1.793-.328A3.4,3.4,0,0,0,7.9,40.016l2.738-.542A1.877,1.877,0,0,1,11.1,41.8l-2.738.542a3.394,3.394,0,0,0,4.152,1.634,3.14,3.14,0,0,0,1.533-.987,11.264,11.264,0,0,1,1.269-1.581,3.264,3.264,0,0,1,1.949-.728Z" transform="translate(-0.971 -4.322)" fill="none" stroke="#19458c" stroke-linecap="round" stroke-linejoin="round" stroke-width="1.4"/>
    </g>
  </g>
</svg>
