<svg xmlns="http://www.w3.org/2000/svg" width="63" height="58" viewBox="0 0 63 58">
  <g id="Project" transform="translate(-116 -1193)">
    <rect id="Rectangle_28" data-name="Rectangle 28" width="63" height="58" rx="10" transform="translate(116 1193)" fill="#fff"/>
    <g id="Group_49" data-name="Group 49" transform="translate(130.607 1199.607)">
      <path id="Path_167" data-name="Path 167" d="M23.949,42.4H1.523A1.023,1.023,0,0,1,.5,41.378V10.067A1.023,1.023,0,0,1,1.523,9.044H6.064" transform="translate(-0.107 -1.938)" fill="none" stroke="#f56c24" stroke-linecap="round" stroke-linejoin="round" stroke-width="1.4"/>
      <path id="Path_168" data-name="Path 168" d="M27.22,9.044h4.552a1.023,1.023,0,0,1,1.023,1.023V31.508" transform="translate(-5.833 -1.938)" fill="none" stroke="#f56c24" stroke-linecap="round" stroke-linejoin="round" stroke-width="1.4"/>
      <path id="Path_169" data-name="Path 169" d="M19.363,9.991H11.936A2.734,2.734,0,0,1,9.2,7.257V6.575H22.1v.682A2.734,2.734,0,0,1,19.363,9.991Z" transform="translate(-1.972 -1.409)" fill="none" stroke="#f56c24" stroke-linecap="round" stroke-linejoin="round" stroke-width="1.4"/>
      <path id="Path_170" data-name="Path 170" d="M17.2.5h-1.12a2.244,2.244,0,0,0-2.244,2.244V5.273h5.608V2.744A2.244,2.244,0,0,0,17.2.5Z" transform="translate(-2.966 -0.107)" fill="none" stroke="#f56c24" stroke-linecap="round" stroke-linejoin="round" stroke-width="1.4"/>
      <line id="Line_67" data-name="Line 67" x2="15.585" transform="translate(4.921 32.979)" fill="none" stroke="#f56c24" stroke-linecap="round" stroke-linejoin="round" stroke-width="1.4"/>
      <line id="Line_68" data-name="Line 68" x2="11.688" transform="translate(6.869 35.588)" fill="none" stroke="#f56c24" stroke-linecap="round" stroke-linejoin="round" stroke-width="1.4"/>
      <path id="Path_171" data-name="Path 171" d="M21.731,26.421v3.491h-9.8v-9.8h6.162" transform="translate(-2.556 -4.309)" fill="none" stroke="#f56c24" stroke-linecap="round" stroke-linejoin="round" stroke-width="1.4"/>
      <path id="Path_172" data-name="Path 172" d="M23.343,20.109,18.6,26.421a12.7,12.7,0,0,1-2.439-2.656" transform="translate(-3.462 -4.309)" fill="none" stroke="#f56c24" stroke-linecap="round" stroke-linejoin="round" stroke-width="1.4"/>
      <path id="Path_173" data-name="Path 173" d="M44.109,41.356,42.7,41.2a6.175,6.175,0,0,0-.717-1.7v-.006l.83-1.171a.67.67,0,0,0-.072-.862l-1.006-1a.671.671,0,0,0-.893-.05l-1.1.88a6.187,6.187,0,0,0-1.717-.695l-.239-1.423a.67.67,0,0,0-.662-.559H35.7a.67.67,0,0,0-.666.6l-.159,1.41a6.331,6.331,0,0,0-1.7.717L32,36.489a.669.669,0,0,0-.862.073l-1,1a.671.671,0,0,0-.05.89l.882,1.108a6.035,6.035,0,0,0-.7,1.717l-1.418.239a.67.67,0,0,0-.559.661V43.6a.671.671,0,0,0,.595.666l1.4.159a6.3,6.3,0,0,0,.724,1.71v.006l-.83,1.164a.672.672,0,0,0,.073.863l1,1.006a.671.671,0,0,0,.891.05l1.107-.881a6.214,6.214,0,0,0,1.712.694l.238,1.423a.671.671,0,0,0,.661.56h1.426a.671.671,0,0,0,.666-.6l.159-1.41a5.992,5.992,0,0,0,1.705-.717l1.175.835a.671.671,0,0,0,.863-.074l1-1a.669.669,0,0,0,.049-.89l-.876-1.1a6.315,6.315,0,0,0,.695-1.722l1.417-.239a.67.67,0,0,0,.559-.661V42.022A.671.671,0,0,0,44.109,41.356Z" transform="translate(-6.062 -7.415)" fill="none" stroke="#f56c24" stroke-linecap="round" stroke-linejoin="round" stroke-width="1.4"/>
      <path id="Path_174" data-name="Path 174" d="M37.987,47.055a2.756,2.756,0,1,1,2.75-2.755A2.756,2.756,0,0,1,37.987,47.055Z" transform="translate(-7.55 -8.902)" fill="none" stroke="#f56c24" stroke-linecap="round" stroke-linejoin="round" stroke-width="1.4"/>
    </g>
  </g>
</svg>
