<svg xmlns="http://www.w3.org/2000/svg" width="63" height="58" viewBox="0 0 63 58">
  <g id="Scheduling" transform="translate(-116 -1193)">
    <rect id="Rectangle_28" data-name="Rectangle 28" width="63" height="58" rx="10" transform="translate(116 1193)" fill="#fff"/>
    <g id="Group_55" data-name="Group 55" transform="translate(125.569 1200.569)">
      <path id="Path_183" data-name="Path 183" d="M41.144,5.1H44.8a3.179,3.179,0,0,1,3.179,3.179V21.877" transform="translate(-5.693 -0.706)" fill="none" stroke="#f56c24" stroke-linecap="round" stroke-linejoin="round" stroke-width="1.4"/>
      <line id="Line_74" data-name="Line 74" x2="4.685" transform="translate(27.31 4.398)" fill="none" stroke="#f56c24" stroke-linecap="round" stroke-linejoin="round" stroke-width="1.4"/>
      <line id="Line_75" data-name="Line 75" x2="4.685" transform="translate(19.169 4.398)" fill="none" stroke="#f56c24" stroke-linecap="round" stroke-linejoin="round" stroke-width="1.4"/>
      <line id="Line_76" data-name="Line 76" x2="4.464" transform="translate(11.248 4.398)" fill="none" stroke="#f56c24" stroke-linecap="round" stroke-linejoin="round" stroke-width="1.4"/>
      <path id="Path_184" data-name="Path 184" d="M24.867,41.22H3.679A3.179,3.179,0,0,1,.5,38.041V8.283A3.179,3.179,0,0,1,3.679,5.1H7.64" transform="translate(-0.069 -0.706)" fill="none" stroke="#f56c24" stroke-linecap="round" stroke-linejoin="round" stroke-width="1.4"/>
      <path id="Rectangle_31" data-name="Rectangle 31" d="M1.729,0h0A1.728,1.728,0,0,1,3.457,1.728V6.319A1.728,1.728,0,0,1,1.729,8.047h0A1.729,1.729,0,0,1,0,6.318V1.729A1.729,1.729,0,0,1,1.729,0Z" transform="translate(7.571 0.431)" fill="none" stroke="#f56c24" stroke-linecap="round" stroke-linejoin="round" stroke-width="1.4"/>
      <path id="Rectangle_32" data-name="Rectangle 32" d="M1.729,0h0A1.728,1.728,0,0,1,3.457,1.728V6.319A1.728,1.728,0,0,1,1.729,8.047h0A1.729,1.729,0,0,1,0,6.318V1.729A1.729,1.729,0,0,1,1.729,0Z" transform="translate(15.713 0.431)" fill="none" stroke="#f56c24" stroke-linecap="round" stroke-linejoin="round" stroke-width="1.4"/>
      <path id="Rectangle_33" data-name="Rectangle 33" d="M1.729,0h0A1.728,1.728,0,0,1,3.457,1.728V6.319A1.728,1.728,0,0,1,1.729,8.047h0A1.729,1.729,0,0,1,0,6.318V1.729A1.729,1.729,0,0,1,1.729,0Z" transform="translate(23.854 0.431)" fill="none" stroke="#f56c24" stroke-linecap="round" stroke-linejoin="round" stroke-width="1.4"/>
      <path id="Rectangle_34" data-name="Rectangle 34" d="M1.729,0h0A1.728,1.728,0,0,1,3.457,1.728V6.319A1.728,1.728,0,0,1,1.729,8.047h0A1.729,1.729,0,0,1,0,6.318V1.729A1.729,1.729,0,0,1,1.729,0Z" transform="translate(31.995 0.431)" fill="none" stroke="#f56c24" stroke-linecap="round" stroke-linejoin="round" stroke-width="1.4"/>
      <rect id="Rectangle_35" data-name="Rectangle 35" width="5.978" height="5.496" rx="1.358" transform="translate(14.003 12.804)" fill="none" stroke="#f56c24" stroke-linecap="round" stroke-linejoin="round" stroke-width="1.4"/>
      <rect id="Rectangle_36" data-name="Rectangle 36" width="5.978" height="5.496" rx="1.358" transform="translate(22.975 12.804)" fill="none" stroke="#f56c24" stroke-linecap="round" stroke-linejoin="round" stroke-width="1.4"/>
      <rect id="Rectangle_37" data-name="Rectangle 37" width="5.978" height="5.496" rx="1.358" transform="translate(31.948 12.804)" fill="none" stroke="#f56c24" stroke-linecap="round" stroke-linejoin="round" stroke-width="1.4"/>
      <rect id="Rectangle_38" data-name="Rectangle 38" width="5.978" height="5.496" rx="1.358" transform="translate(4.941 21.35)" fill="none" stroke="#f56c24" stroke-linecap="round" stroke-linejoin="round" stroke-width="1.4"/>
      <rect id="Rectangle_39" data-name="Rectangle 39" width="5.978" height="5.496" rx="1.358" transform="translate(13.913 21.35)" fill="none" stroke="#f56c24" stroke-linecap="round" stroke-linejoin="round" stroke-width="1.4"/>
      <path id="Path_185" data-name="Path 185" d="M28.559,30.274h-.767a1.127,1.127,0,0,1-1.127-1.127V25.905a1.126,1.126,0,0,1,1.127-1.127h3.724a1.127,1.127,0,0,1,1.127,1.127" transform="translate(-3.69 -3.428)" fill="none" stroke="#f56c24" stroke-linecap="round" stroke-linejoin="round" stroke-width="1.4"/>
      <rect id="Rectangle_40" data-name="Rectangle 40" width="5.978" height="5.496" rx="1.358" transform="translate(4.941 29.895)" fill="none" stroke="#f56c24" stroke-linecap="round" stroke-linejoin="round" stroke-width="1.4"/>
      <rect id="Rectangle_41" data-name="Rectangle 41" width="5.978" height="5.496" rx="1.358" transform="translate(13.913 29.895)" fill="none" stroke="#f56c24" stroke-linecap="round" stroke-linejoin="round" stroke-width="1.4"/>
      <path id="Path_186" data-name="Path 186" d="M38.326,45.725a10.555,10.555,0,0,0,4.1-20.349,10.842,10.842,0,0,0-11.692,2.293A10.468,10.468,0,0,0,28.414,39.2,10.73,10.73,0,0,0,38.326,45.725Z" transform="translate(-3.818 -3.4)" fill="none" stroke="#f56c24" stroke-linecap="round" stroke-linejoin="round" stroke-width="1.4"/>
      <path id="Path_187" data-name="Path 187" d="M45.218,36.924H39.294V31" transform="translate(-5.437 -4.289)" fill="none" stroke="#f56c24" stroke-linecap="round" stroke-linejoin="round" stroke-width="1.4"/>
    </g>
  </g>
</svg>
