<svg xmlns="http://www.w3.org/2000/svg" width="56.401" height="49.189" viewBox="0 0 56.401 49.189">
  <g id="Secure" transform="translate(0.2 0.2)">
    <path id="Path_144" data-name="Path 144" d="M36.28,35.777H3.1a2.6,2.6,0,0,1-2.6-2.6V8.425a2.6,2.6,0,0,1,2.6-2.6H45.143a2.6,2.6,0,0,1,2.6,2.6V25.784" fill="none" stroke="#f56c24" stroke-linecap="round" stroke-linejoin="round" stroke-width="1.4"/>
    <path id="Path_145" data-name="Path 145" d="M5.71,5.826V3.1A2.6,2.6,0,0,1,8.309.5H50.354a2.6,2.6,0,0,1,2.6,2.6V27.852" fill="none" stroke="#f56c24" stroke-linecap="round" stroke-linejoin="round" stroke-width="1.4"/>
    <path id="Path_146" data-name="Path 146" d="M45.875,48.289c-9.716-3.425-9.6-11.116-9.6-11.116v-8.3a14.426,14.426,0,0,0,6.777-2.879h5.666A14.426,14.426,0,0,0,55.5,28.869v8.3s.121,7.691-9.6,11.116Z" fill="none" stroke="#f56c24" stroke-linecap="round" stroke-linejoin="round" stroke-width="1.4"/>
    <path id="Path_147" data-name="Path 147" d="M50.444,34.093l-5.31,5.482-3.722-3.668" fill="none" stroke="#f56c24" stroke-linecap="round" stroke-linejoin="round" stroke-width="1.4"/>
    <line id="Line_56" data-name="Line 56" x2="47.242" transform="translate(0.5 13.7)" fill="none" stroke="#f56c24" stroke-linecap="round" stroke-linejoin="round" stroke-width="1.4"/>
    <line id="Line_57" data-name="Line 57" x2="16.442" transform="translate(6.695 23.793)" fill="none" stroke="#f56c24" stroke-linecap="round" stroke-linejoin="round" stroke-width="1.4"/>
    <line id="Line_58" data-name="Line 58" x2="9.147" transform="translate(6.695 29.447)" fill="none" stroke="#f56c24" stroke-linecap="round" stroke-linejoin="round" stroke-width="1.4"/>
    <path id="Path_148" data-name="Path 148" d="M36.1,30.745A4.61,4.61,0,0,1,32.887,26.1a4.962,4.962,0,1,1,9.925,0" fill="none" stroke="#f56c24" stroke-linecap="round" stroke-linejoin="round" stroke-width="1.4"/>
  </g>
</svg>
