<svg xmlns="http://www.w3.org/2000/svg" width="51.91" height="53.4" viewBox="0 0 51.91 53.4">
  <g id="Verified" transform="translate(0.184 0.2)">
    <circle id="Ellipse_1" data-name="Ellipse 1" cx="14.056" cy="14.056" r="14.056" transform="translate(6.142 0.5)" fill="none" stroke="#f56c24" stroke-linecap="round" stroke-linejoin="round" stroke-width="1.4"/>
    <path id="Path_133" data-name="Path 133" d="M31.271,30.743a15.785,15.785,0,0,0-4.137-1.451,35.106,35.106,0,0,0-13.751,0A15.384,15.384,0,0,0,3.147,36.484a17.862,17.862,0,0,0-2.1,5.673,13.543,13.543,0,0,0-.474,4.679C1.238,50.7,6.1,50.673,9.123,50.868a154.183,154.183,0,0,0,22.271.066" fill="none" stroke="#f56c24" stroke-linecap="round" stroke-linejoin="round" stroke-width="1.4"/>
    <path id="Path_134" data-name="Path 134" d="M41.77,45.32l-3.176,6.965a.357.357,0,0,1-.329.214H38.26a.355.355,0,0,1-.327-.223l-1.155-2.829L34,50.714a.359.359,0,0,1-.477-.472l3.023-6.373" fill="none" stroke="#f56c24" stroke-linecap="round" stroke-linejoin="round" stroke-width="1.4"/>
    <path id="Path_135" data-name="Path 135" d="M39.7,45.842a1.281,1.281,0,0,1-.343-.044,2.477,2.477,0,0,1-1.21-1.022,2.649,2.649,0,0,0-.645-.682,2.689,2.689,0,0,0-.933-.227,2.425,2.425,0,0,1-1.47-.53,2.425,2.425,0,0,1-.53-1.472,2.7,2.7,0,0,0-.228-.931,2.682,2.682,0,0,0-.681-.646,2.471,2.471,0,0,1-1.023-1.209,2.4,2.4,0,0,1,.276-1.516,2.759,2.759,0,0,0,.274-.943,2.753,2.753,0,0,0-.274-.943,2.407,2.407,0,0,1-.276-1.517,2.476,2.476,0,0,1,1.023-1.209,2.657,2.657,0,0,0,.681-.648,2.673,2.673,0,0,0,.227-.93,2.41,2.41,0,0,1,.53-1.47,2.44,2.44,0,0,1,1.471-.531,2.678,2.678,0,0,0,.932-.227,2.665,2.665,0,0,0,.646-.681,2.471,2.471,0,0,1,1.209-1.023,2.391,2.391,0,0,1,1.517.275,2.754,2.754,0,0,0,.943.271,2.753,2.753,0,0,0,.943-.274,2.407,2.407,0,0,1,1.517-.276,2.476,2.476,0,0,1,1.209,1.023,2.665,2.665,0,0,0,.646.681,2.673,2.673,0,0,0,.93.227,2.428,2.428,0,0,1,1.471.53,2.435,2.435,0,0,1,.53,1.471,2.729,2.729,0,0,0,.227.932,2.653,2.653,0,0,0,.682.646,2.474,2.474,0,0,1,1.022,1.209,2.391,2.391,0,0,1-.275,1.517,2.753,2.753,0,0,0-.274.943,2.747,2.747,0,0,0,.274.942,2.4,2.4,0,0,1,.275,1.517,2.469,2.469,0,0,1-1.022,1.209,2.653,2.653,0,0,0-.682.646,2.718,2.718,0,0,0-.227.93,1.837,1.837,0,0,1-2,2,2.673,2.673,0,0,0-.931.227,2.653,2.653,0,0,0-.646.682,2.469,2.469,0,0,1-1.209,1.022,2.391,2.391,0,0,1-1.517-.275,2.725,2.725,0,0,0-.943-.27,2.729,2.729,0,0,0-.943.273A3.179,3.179,0,0,1,39.7,45.842Z" fill="none" stroke="#f56c24" stroke-linecap="round" stroke-linejoin="round" stroke-width="1.4"/>
    <path id="Path_136" data-name="Path 136" d="M47.085,43.869l3.022,6.374a.359.359,0,0,1-.183.473.355.355,0,0,1-.294,0l-2.777-1.267L45.7,52.277a.358.358,0,0,1-.327.223h0a.359.359,0,0,1-.328-.215l-3.177-6.964" fill="none" stroke="#f56c24" stroke-linecap="round" stroke-linejoin="round" stroke-width="1.4"/>
    <circle id="Ellipse_2" data-name="Ellipse 2" cx="5.126" cy="5.126" r="5.126" transform="translate(36.689 31.491)" fill="none" stroke="#f56c24" stroke-linecap="round" stroke-linejoin="round" stroke-width="1.4"/>
  </g>
</svg>
