<svg xmlns="http://www.w3.org/2000/svg" width="63" height="58" viewBox="0 0 63 58">
  <g id="Verified" transform="translate(-116 -1193)">
    <rect id="Rectangle_28" data-name="Rectangle 28" width="63" height="58" rx="10" transform="translate(116 1193)" fill="#fff"/>
    <g id="Group_44" data-name="Group 44" transform="translate(128.637 1202.637)">
      <circle id="Ellipse_5" data-name="Ellipse 5" cx="10.218" cy="10.218" r="10.218" transform="translate(4.465 0.363)" fill="none" stroke="#f56c24" stroke-linecap="round" stroke-linejoin="round" stroke-width="1.4"/>
      <path id="Path_152" data-name="Path 152" d="M22.868,30.161a11.474,11.474,0,0,0-3.007-1.055,25.519,25.519,0,0,0-10,0,11.183,11.183,0,0,0-7.441,5.228A12.984,12.984,0,0,0,.9,38.458a9.845,9.845,0,0,0-.345,3.4c.48,2.812,4.014,2.789,6.212,2.931a112.078,112.078,0,0,0,16.189.048" transform="translate(-0.137 -7.814)" fill="none" stroke="#f56c24" stroke-linecap="round" stroke-linejoin="round" stroke-width="1.4"/>
      <path id="Path_153" data-name="Path 153" d="M39.51,44.924,37.2,49.987a.26.26,0,0,1-.239.156h0a.258.258,0,0,1-.238-.162l-.84-2.056-2.019.921a.261.261,0,0,1-.347-.343l2.2-4.633" transform="translate(-9.146 -11.98)" fill="none" stroke="#f56c24" stroke-linecap="round" stroke-linejoin="round" stroke-width="1.4"/>
      <path id="Path_154" data-name="Path 154" d="M37.759,40.8a.931.931,0,0,1-.249-.032,1.8,1.8,0,0,1-.88-.743,1.926,1.926,0,0,0-.469-.5,1.955,1.955,0,0,0-.678-.165,1.335,1.335,0,0,1-1.454-1.455,1.223,1.223,0,0,0-.661-1.146,1.8,1.8,0,0,1-.744-.879,1.741,1.741,0,0,1,.2-1.1,2.006,2.006,0,0,0,.2-.685,2,2,0,0,0-.2-.685,1.749,1.749,0,0,1-.2-1.1,1.8,1.8,0,0,1,.744-.879,1.931,1.931,0,0,0,.5-.471,1.943,1.943,0,0,0,.165-.676,1.752,1.752,0,0,1,.385-1.069,1.774,1.774,0,0,1,1.069-.386,1.947,1.947,0,0,0,.677-.165,1.937,1.937,0,0,0,.47-.5,1.8,1.8,0,0,1,.879-.744,1.738,1.738,0,0,1,1.1.2,2,2,0,0,0,.685.2,2,2,0,0,0,.685-.2,1.749,1.749,0,0,1,1.1-.2,1.8,1.8,0,0,1,.879.744,1.221,1.221,0,0,0,1.146.66,1.335,1.335,0,0,1,1.455,1.455,1.984,1.984,0,0,0,.165.677,1.928,1.928,0,0,0,.5.47,1.8,1.8,0,0,1,.743.879,1.738,1.738,0,0,1-.2,1.1,2,2,0,0,0-.2.685,2,2,0,0,0,.2.685,1.745,1.745,0,0,1,.2,1.1,1.794,1.794,0,0,1-.743.879,1.928,1.928,0,0,0-.5.47,1.976,1.976,0,0,0-.165.676,1.336,1.336,0,0,1-1.454,1.456,1.22,1.22,0,0,0-1.146.661,1.8,1.8,0,0,1-.879.743,1.738,1.738,0,0,1-1.1-.2,1.981,1.981,0,0,0-.685-.2,1.984,1.984,0,0,0-.685.2A2.311,2.311,0,0,1,37.759,40.8Z" transform="translate(-8.901 -7.481)" fill="none" stroke="#f56c24" stroke-linecap="round" stroke-linejoin="round" stroke-width="1.4"/>
      <path id="Path_155" data-name="Path 155" d="M45.659,43.869l2.2,4.633a.261.261,0,0,1-.133.344.258.258,0,0,1-.214,0l-2.019-.921-.84,2.057a.26.26,0,0,1-.238.162h0a.261.261,0,0,1-.238-.156l-2.309-5.062" transform="translate(-11.432 -11.98)" fill="none" stroke="#f56c24" stroke-linecap="round" stroke-linejoin="round" stroke-width="1.4"/>
      <circle id="Ellipse_6" data-name="Ellipse 6" cx="3.726" cy="3.726" r="3.726" transform="translate(26.67 22.891)" fill="none" stroke="#f56c24" stroke-linecap="round" stroke-linejoin="round" stroke-width="1.4"/>
    </g>
  </g>
</svg>
